<svg width="35" height="30" viewBox="0 0 35 30" fill="none" xmlns="http://www.w3.org/2000/svg">
<path d="M17.2428 2.90092C18.7366 2.90092 20.0268 1.94848 20.4903 0.547363C19.606 0.790783 18.4789 0.937698 17.2428 0.937698C16.0068 0.937698 14.8797 0.790783 13.9955 0.547363C14.4588 1.94837 15.7489 2.90092 17.2428 2.90092Z" fill="#DB9835"/>
<path d="M34.4426 4.62334C34.3717 4.42426 34.2241 4.26054 34.0318 4.17139L27.457 1.13623C26.0584 0.662461 24.6336 0.288229 23.1949 0.0147031C23.1443 0.00478431 23.0939 0 23.0442 0C22.688 0 22.3691 0.24587 22.2897 0.606448C21.7644 2.91928 19.717 4.65088 17.2427 4.65088C14.7685 4.65088 12.721 2.9194 12.1958 0.606448C12.1155 0.24587 11.7971 0 11.4412 0C11.3915 0 11.3411 0.00478431 11.2905 0.0147031C9.85189 0.288229 8.42708 0.662461 7.02631 1.13623L0.453867 4.17127C0.260392 4.26043 0.111726 4.42414 0.0441617 4.62322C-0.0257368 4.82463 -0.013134 5.04203 0.085354 5.232L2.93964 10.865C3.07325 11.1323 3.34503 11.2928 3.63256 11.2928C3.70677 11.2928 3.78204 11.282 3.85626 11.2597L7.02643 10.3201V29.2207C7.02643 29.6499 7.37662 30 7.80698 30H26.6788C27.108 30 27.4571 29.6498 27.4571 29.2207V10.3204L30.6295 11.26C30.7037 11.2823 30.7789 11.293 30.853 11.293C31.1399 11.293 31.4106 11.1325 31.5461 10.8652L34.4014 5.23224C34.4976 5.04214 34.5114 4.82475 34.4426 4.62334Z" fill="#DB9835"/>
</svg>
