<svg width="32" height="32" viewBox="0 0 32 32" fill="none" xmlns="http://www.w3.org/2000/svg">
<path d="M31.1103 27.1662L18.5818 14.6375L3.94421 0H2.80028L2.5667 0.593527C1.95021 2.16012 1.6868 3.76242 1.80505 5.22698C1.93985 6.89642 2.57406 8.34177 3.63924 9.40695L15.0661 20.8338L16.5733 19.3266L27.1374 31.1393C28.1883 32.1902 29.9971 32.2526 31.1103 31.1393C32.2058 30.0439 32.2058 28.2616 31.1103 27.1662Z" fill="#DB9835"/>
<path d="M9.77095 18.187L0.82149 27.1365C-0.27383 28.2318 -0.27383 30.0141 0.82149 31.1094C1.86202 32.15 3.66207 32.2418 4.79446 31.1094L13.744 22.1599L9.77095 18.187Z" fill="#DB9835"/>
<path d="M30.5845 5.31983L25.5078 10.3964L24.1834 9.07208L29.2601 3.99543L27.9357 2.67109L22.8591 7.74767L21.5348 6.42333L26.6114 1.34674L25.2872 0.0224609L18.6654 6.64418C17.8554 7.45425 17.3717 8.52985 17.3033 9.67297C17.286 9.96259 17.2203 10.2475 17.1115 10.5184L21.4129 14.8199C21.6839 14.7109 21.9688 14.6453 22.2584 14.628C23.4015 14.5598 24.4771 14.076 25.2872 13.2659L31.9089 6.64424L30.5845 5.31983Z" fill="#DB9835"/>
</svg>
