<svg width="32" height="36" viewBox="0 0 32 36" fill="none" xmlns="http://www.w3.org/2000/svg">
<path d="M22.0512 15.327C22.0512 14.5733 21.4454 13.9624 20.6979 13.9624H6.75905C6.01163 13.9624 5.40576 14.5733 5.40576 15.327C5.40576 16.0807 6.01163 16.6916 6.75905 16.6916H20.6979C21.4454 16.6916 22.0512 16.0807 22.0512 15.327Z" fill="#DB9835"/>
<path d="M6.75905 19.4209C6.01163 19.4209 5.40576 20.0318 5.40576 20.7855C5.40576 21.5392 6.01163 22.1501 6.75905 22.1501H15.2246C15.972 22.1501 16.5779 21.5392 16.5779 20.7855C16.5779 20.0318 15.972 19.4209 15.2246 19.4209H6.75905Z" fill="#DB9835"/>
<path d="M9.93918 32.5208H5.41316C3.92075 32.5208 2.70658 31.2965 2.70658 29.7916V5.77478C2.70658 4.2699 3.92075 3.04559 5.41316 3.04559H22.0511C23.5435 3.04559 24.7577 4.2699 24.7577 5.77478V14.167C24.7577 14.9207 25.3636 15.5316 26.111 15.5316C26.8584 15.5316 27.4643 14.9207 27.4643 14.167V5.77478C27.4643 2.76503 25.0359 0.316406 22.0511 0.316406H5.41316C2.42834 0.316406 0 2.76503 0 5.77478V29.7916C0 32.8014 2.42834 35.25 5.41316 35.25H9.93918C10.6866 35.25 11.2925 34.6391 11.2925 33.8854C11.2925 33.1317 10.6866 32.5208 9.93918 32.5208Z" fill="#DB9835"/>
<path d="M29.8612 20.0733C28.2782 18.4771 25.7026 18.477 24.1207 20.0722L16.6909 27.5474C16.5331 27.7062 16.4168 27.9017 16.3519 28.1168L14.7339 33.4882C14.5904 33.9644 14.7154 34.4815 15.0601 34.8377C15.3183 35.1046 15.6691 35.2494 16.0288 35.2494C16.1492 35.2494 16.2707 35.2332 16.39 35.1998L21.8523 33.6742C22.077 33.6114 22.2819 33.4911 22.447 33.3249L29.8612 25.8628C31.4442 24.2667 31.4442 21.6696 29.8612 20.0733ZM20.7868 31.1398L18.0388 31.9074L18.843 29.2377L23.8562 24.1938L25.7704 26.124L20.7868 31.1398ZM27.9484 23.9322L27.6862 24.196L25.7723 22.2662L26.0336 22.0032C26.5612 21.4712 27.4198 21.4712 27.9474 22.0032C28.4751 22.5353 28.4751 23.401 27.9484 23.9322Z" fill="#DB9835"/>
<path d="M20.6979 8.50391H6.75905C6.01163 8.50391 5.40576 9.11483 5.40576 9.8685C5.40576 10.6222 6.01163 11.2331 6.75905 11.2331H20.6979C21.4454 11.2331 22.0512 10.6222 22.0512 9.8685C22.0512 9.11483 21.4454 8.50391 20.6979 8.50391Z" fill="#DB9835"/>
</svg>
