<?xml version="1.0" standalone="no"?>
<!DOCTYPE svg PUBLIC "-//W3C//DTD SVG 20010904//EN"
 "http://www.w3.org/TR/2001/REC-SVG-20010904/DTD/svg10.dtd">
<svg version="1.0" xmlns="http://www.w3.org/2000/svg"
 width="1280.000000pt" height="895.000000pt" viewBox="0 0 1280.000000 895.000000"
 preserveAspectRatio="xMidYMid meet">
<metadata>
Created by potrace 1.15, written by Peter Selinger 2001-2017
</metadata>
<g transform="translate(0.000000,895.000000) scale(0.100000,-0.100000)"
fill="#DB9835" stroke="none">
<path d="M7498 8934 c-58 -31 -58 -29 -58 -549 l0 -475 -212 0 c-239 0 -303
-10 -401 -62 -32 -18 -82 -52 -109 -76 -27 -25 -358 -430 -736 -901 -3265
-4066 -4315 -5370 -4343 -5398 -49 -46 -144 -100 -219 -125 -62 -21 -90 -22
-525 -28 l-460 -6 -69 -27 c-234 -93 -379 -315 -362 -557 10 -150 61 -264 163
-366 72 -72 193 -138 282 -154 76 -14 1174 -13 1243 1 95 19 206 81 275 151
47 48 3270 4131 4576 5798 223 285 285 350 375 398 133 71 37 66 1427 63 688
-1 1253 -6 1256 -9 4 -4 496 -1478 1095 -3275 l1089 -3268 50 -34 50 -35 407
0 406 0 51 69 51 69 -274 768 c-430 1205 -1293 3625 -1796 5034 -252 707 -593
1662 -757 2122 -264 739 -302 840 -328 860 l-30 23 -1045 2 c-911 2 -1049 0
-1072 -13z m1882 -237 c13 -7 35 -28 47 -46 23 -33 23 -38 23 -338 0 -335 -4
-359 -59 -387 -26 -14 -124 -16 -835 -16 l-806 0 -32 29 -33 29 -3 324 c-3
287 -1 326 14 355 34 65 -3 63 869 63 612 0 796 -3 815 -13z m1785 -4602 c747
-2090 1363 -3817 1371 -3837 l13 -38 -293 0 -294 0 -1085 3258 -1085 3257 -32
605 c-17 333 -33 648 -36 700 l-5 95 45 -120 c25 -66 655 -1830 1401 -3920z"/>
</g>
</svg>
